<?xml version="1.0" encoding="UTF-8"?>
<svg id="Ebene_1" xmlns="http://www.w3.org/2000/svg" version="1.1" viewBox="0 0 300.3 72.1">
  <!-- Generator: Adobe Illustrator 29.2.1, SVG Export Plug-In . SVG Version: 2.1.0 Build 116)  -->
  <defs>
    <style>
      .st0 {
        fill: #88bd21;
      }

      .st1 {
        fill: #1f1f1f;
      }
    </style>
  </defs>
  <g>
    <path class="st0" d="M36,20.2c3.7,0,6.7-3,6.7-6.7s-3-6.7-6.7-6.7-6.7,3-6.7,6.7,3,6.7,6.7,6.7Z"/>
    <path class="st0" d="M69.5,0H0v72.1h72.1V0h-2.6ZM69.5,2.6v21.8H2.6V2.6s66.9,0,66.9,0ZM42.8,69.5v-29c0-2.3,2.2-4.6,6.1-6.3,4.1-1.8,9.5-2.8,15.3-2.8h5.4v38.2s-26.7,0-26.7,0ZM8,31.3c5.8,0,11.2,1,15.3,2.8,3.8,1.7,6.1,4,6.1,6.3v29H2.6V31.3s5.4,0,5.4,0Z"/>
    <path class="st0" d="M8.1,44.7h14.7c.7,0,1.3-.6,1.3-1.3s-.6-1.3-1.3-1.3h-14.7c-.7,0-1.3.6-1.3,1.3s.6,1.3,1.3,1.3Z"/>
    <path class="st0" d="M8.1,54h14.7c.7,0,1.3-.6,1.3-1.3s-.6-1.3-1.3-1.3h-14.7c-.7,0-1.3.6-1.3,1.3s.6,1.3,1.3,1.3Z"/>
    <path class="st0" d="M8.1,63.3h14.7c.7,0,1.3-.6,1.3-1.3s-.6-1.3-1.3-1.3h-14.7c-.7,0-1.3.6-1.3,1.3s.6,1.3,1.3,1.3Z"/>
    <path class="st0" d="M49.2,44.7h14.7c.7,0,1.3-.6,1.3-1.3s-.6-1.3-1.3-1.3h-14.7c-.7,0-1.3.6-1.3,1.3s.6,1.3,1.3,1.3Z"/>
    <path class="st0" d="M64,51.4h-14.7c-.7,0-1.3.6-1.3,1.3s.6,1.3,1.3,1.3h14.7c.7,0,1.3-.6,1.3-1.3s-.6-1.3-1.3-1.3Z"/>
    <path class="st0" d="M64,60.7h-14.7c-.7,0-1.3.6-1.3,1.3s.6,1.3,1.3,1.3h14.7c.7,0,1.3-.6,1.3-1.3s-.6-1.3-1.3-1.3Z"/>
  </g>
  <g>
    <path class="st1" d="M90.1,32.4v-2.4l2.9-.5V7.5l-2.9-.5v-2.4h9.3v2.4l-2.9.5v9.6h12.4V7.5l-2.9-.5v-2.4h9.3v2.4l-2.9.5v21.9l2.9.5v2.4h-9.3v-2.4l2.9-.5v-9.4h-12.4v9.4l2.9.5v2.4h-9.3Z"/>
    <path class="st1" d="M127.8,32.8c-1.8,0-3.3-.5-4.6-1.4-1.3-.9-2.3-2.1-3-3.7-.7-1.6-1-3.4-1-5.4v-.4c0-2,.4-3.9,1-5.4.7-1.6,1.7-2.8,3-3.7,1.3-.9,2.8-1.4,4.6-1.4s3.3.5,4.6,1.4c1.3.9,2.3,2.1,3,3.7.7,1.6,1,3.4,1,5.5v.4c0,2-.4,3.9-1,5.5s-1.7,2.8-3,3.7-2.8,1.3-4.6,1.3h0ZM127.8,29.9c1.1,0,2-.3,2.8-1,.8-.7,1.3-1.5,1.7-2.7.4-1.1.6-2.4.6-3.9v-.4c0-1.5-.2-2.7-.6-3.9-.4-1.1-1-2-1.7-2.7-.8-.7-1.7-1-2.8-1s-2,.3-2.8,1c-.8.7-1.3,1.6-1.7,2.7s-.6,2.4-.6,3.9v.4c0,1.5.2,2.8.6,3.9s1,2,1.7,2.7,1.7,1,2.8,1h0Z"/>
    <path class="st1" d="M149.6,32.8c-1.7,0-3.3-.4-4.6-1.3-1.3-.9-2.3-2.1-3-3.6-.7-1.6-1.1-3.4-1.1-5.4v-.8c0-2,.3-3.7,1-5.3.7-1.6,1.7-2.8,3-3.7,1.3-.9,2.8-1.4,4.6-1.4s2.9.3,4.1.8,2.1,1.3,2.9,2.3v5c0,0-2.7,0-2.7,0l-.6-3.6c-.4-.5-.9-.8-1.5-1.1s-1.3-.4-2.1-.4-2,.3-2.7,1c-.8.7-1.4,1.5-1.8,2.7s-.7,2.3-.7,3.7v.8c0,1.5.2,2.8.6,3.9.4,1.1,1,2,1.8,2.6s1.7.9,2.7.9,2.2-.4,3-1c.8-.7,1.3-1.7,1.4-2.9h3.2c0,1.3-.4,2.4-1,3.4-.6,1-1.4,1.9-2.5,2.5-1.1.6-2.4,1-4,1h0Z"/>
    <path class="st1" d="M160.5,32.4v-2.4l2.9-.5V5.5l-2.9-.5v-2.4h6.4v11.9c.7-1,1.5-1.8,2.4-2.3s2-.8,3.2-.8c2.1,0,3.7.7,4.8,2,1.1,1.3,1.7,3.4,1.7,6.1v10l2.9.5v2.4h-9.3v-2.4l2.9-.5v-10.1c0-1.7-.3-3-1-3.8-.7-.8-1.7-1.2-3-1.2s-1.8.2-2.6.7c-.8.5-1.4,1.2-2,2v12.3l2.9.5v2.4h-9.3Z"/>
    <path class="st1" d="M193.2,32.8c-1.3,0-2.5-.1-3.6-.4s-2.3-.7-3.6-1.3v-4.9s2.6,0,2.6,0l.7,3c.7.3,1.3.5,1.9.6s1.3.2,2,.2c1.4,0,2.4-.3,3.1-.9s.9-1.3.9-2.2-.3-1.5-.9-2.1c-.6-.6-1.8-1-3.4-1.4-2.3-.6-4-1.3-5.1-2.3-1.1-1-1.6-2.2-1.6-3.9s.3-2.1.9-3,1.5-1.6,2.5-2.1,2.3-.8,3.8-.8,2.7.2,3.7.5c1,.4,1.9.8,2.7,1.4l.2,4.7h-2.6l-.6-2.8c-.4-.3-.9-.6-1.5-.8s-1.2-.3-2-.3c-1.1,0-2,.3-2.7.8s-1,1.2-1,2.1,0,.9.3,1.3c.2.4.6.7,1.1,1,.6.3,1.4.6,2.5.9,2.7.7,4.6,1.5,5.6,2.6,1.1,1,1.6,2.3,1.6,3.9s-.6,3.2-1.8,4.4-3.1,1.8-5.7,1.8h0Z"/>
    <path class="st1" d="M213.4,32.8c-1.7,0-3.3-.4-4.6-1.3-1.3-.9-2.3-2.1-3-3.6-.7-1.6-1.1-3.4-1.1-5.4v-.8c0-2,.3-3.7,1-5.3s1.7-2.8,3-3.7c1.3-.9,2.8-1.4,4.6-1.4s2.9.3,4.1.8,2.1,1.3,2.9,2.3v5c0,0-2.7,0-2.7,0l-.6-3.6c-.4-.5-.9-.8-1.5-1.1s-1.3-.4-2.1-.4-2,.3-2.7,1c-.8.7-1.4,1.5-1.8,2.7s-.7,2.3-.7,3.7v.8c0,1.5.2,2.8.6,3.9.4,1.1,1,2,1.8,2.6s1.7.9,2.7.9,2.2-.4,3-1c.8-.7,1.3-1.7,1.4-2.9h3.2c0,1.3-.4,2.4-1,3.4-.6,1-1.4,1.9-2.5,2.5-1.1.6-2.4,1-4,1h0Z"/>
    <path class="st1" d="M224.3,32.4v-2.4l2.9-.5V5.5l-2.9-.5v-2.4h6.4v11.9c.7-1,1.5-1.8,2.4-2.3s2-.8,3.2-.8c2.1,0,3.7.7,4.8,2,1.1,1.3,1.7,3.4,1.7,6.1v10l2.9.5v2.4h-9.3v-2.4l2.9-.5v-10.1c0-1.7-.3-3-1-3.8-.7-.8-1.7-1.2-3-1.2s-1.8.2-2.6.7c-.8.5-1.4,1.2-2,2v12.3l2.9.5v2.4h-9.3Z"/>
    <path class="st1" d="M257,32.8c-2.1,0-3.7-.7-4.9-2.2-1.2-1.4-1.8-3.7-1.8-6.7v-9.2l-2.2-.5v-2.4h5.7v12.2c0,2.2.3,3.7.9,4.6.6.8,1.5,1.2,2.8,1.2s2.3-.3,3.1-.8c.8-.5,1.4-1.3,1.8-2.3v-12l-2.6-.5v-2.4h6.1v17.7l2.2.5v2.4h-5.4l-.2-3.1c-.6,1.1-1.4,2-2.3,2.6-1,.6-2.1.9-3.3.9h0Z"/>
    <path class="st1" d="M271.6,32.4v-2.4l2.9-.5V5.5l-2.9-.5v-2.4h6.4v26.9l2.9.5v2.4h-9.3Z"/>
    <path class="st1" d="M292.9,32.8c-1.8,0-3.3-.4-4.6-1.3-1.3-.9-2.3-2.1-3-3.6-.7-1.6-1.1-3.4-1.1-5.4v-.8c0-2,.4-3.7,1.1-5.3s1.8-2.8,3-3.7c1.2-.9,2.6-1.4,4.1-1.4s3.2.4,4.4,1.1c1.2.8,2,1.8,2.6,3.2.6,1.4.9,3,.9,4.9v2.4h-12.5c0,1.4.2,2.6.6,3.6.4,1,1,1.8,1.8,2.4s1.7.9,2.8.9,2.2-.2,3.1-.5c.9-.4,1.7-.9,2.3-1.5l1.4,2.5c-.7.7-1.6,1.3-2.7,1.8-1.1.5-2.5.7-4.1.7h0ZM287.9,20h8.9v-.5c0-1-.2-1.9-.5-2.7-.3-.8-.8-1.4-1.5-1.9s-1.5-.7-2.4-.7-1.5.2-2.1.7c-.6.5-1.2,1.2-1.6,2s-.7,1.8-.8,2.9h0Z"/>
  </g>
  <g>
    <path class="st1" d="M90.1,67.5v-2.5l11.6-18.9h-8.6l-.3,3.1h-2.4v-5.6h14.8v2.4l-11.6,19h9.5l.3-3.4h2.4v5.9h-15.5,0Z"/>
    <path class="st1" d="M109,67.5v-2.1l2.5-.5v-12.7l-2.5-.5v-2.1h5.5v15.2l2.5.5v2.1h-8ZM111.3,45.3v-3.5h3.2v3.5h-3.2Z"/>
    <path class="st1" d="M125.8,67.7c-1.2,0-2.2-.4-2.9-1.2-.7-.8-1.1-2-1.1-3.7v-10.8h-2.6v-2.4h2.6v-4.3h3v4.3h3.6v2.4h-3.6v10.8c0,.9.2,1.5.5,1.9s.7.6,1.3.6.8,0,1.2-.1.8-.1,1-.2l.4,2.1c-.4.1-1,.3-1.6.4s-1.2.2-1.8.2h0Z"/>
    <path class="st1" d="M137.9,67.7c-1.2,0-2.2-.4-2.9-1.2-.7-.8-1.1-2-1.1-3.7v-10.8h-2.6v-2.4h2.6v-4.3h3v4.3h3.6v2.4h-3.6v10.8c0,.9.2,1.5.5,1.9s.7.6,1.3.6.8,0,1.2-.1.8-.1,1-.2l.4,2.1c-.4.1-1,.3-1.6.4s-1.2.2-1.8.2h0Z"/>
    <path class="st1" d="M149.5,67.8c-1.7,0-3-.5-3.9-1.4s-1.3-2.2-1.3-3.8.6-3,1.9-4.1c1.3-1,3.1-1.5,5.3-1.5h3v-1.7c0-1.1-.3-1.9-.9-2.5-.6-.6-1.5-.9-2.6-.9s-1.3,0-1.8.3-1,.4-1.4.7l-.3,2.5h-2.3v-4.1c.7-.6,1.6-1.1,2.6-1.5s2.1-.5,3.3-.5c2,0,3.6.5,4.7,1.5,1.1,1,1.7,2.5,1.7,4.4v9.2c0,.2,0,.4,0,.7l1.6.2v2.1h-4.3c0-.5-.2-.9-.2-1.3s0-.8-.1-1.1c-.6.8-1.3,1.5-2.2,2s-1.8.8-2.8.8h0ZM149.9,65.1c1,0,1.9-.3,2.7-.8.8-.5,1.4-1.1,1.8-1.9v-3.2h-3c-1.4,0-2.4.4-3.1,1.1s-1,1.5-1,2.4.2,1.4.7,1.8c.5.4,1.1.6,2,.6h0Z"/>
    <path class="st1" d="M169.6,67.8c-1.8,0-3.2-.6-4.2-1.9-1-1.2-1.5-3.2-1.5-5.8v-7.9l-1.9-.5v-2.1h4.9v10.5c0,1.9.3,3.2.8,3.9.5.7,1.3,1.1,2.4,1.1s2-.2,2.6-.7c.7-.5,1.2-1.1,1.6-2v-10.3l-2.2-.5v-2.1h5.2v15.2l1.9.5v2.1h-4.6l-.2-2.6c-.5,1-1.2,1.7-2,2.2-.8.5-1.8.8-2.8.8h0Z"/>
    <path class="st1" d="M184.5,69.5l9.3-25.9h2.5l-9.3,25.9s-2.5,0-2.5,0Z"/>
    <path class="st1" d="M209.3,67.8c-2.1,0-3.8-.5-5.3-1.5-1.5-1-2.7-2.4-3.5-4.3-.8-1.8-1.2-3.9-1.2-6.3v-.4c0-2.4.4-4.5,1.2-6.3.8-1.8,1.9-3.2,3.4-4.2s3-1.5,4.9-1.5,3.2.2,4.4.6,2.2,1,3.1,1.7v4.8h-2.5l-.3-3.5c-.5-.4-1.1-.6-1.8-.8s-1.6-.3-2.6-.3-2.4.4-3.4,1.2-1.8,1.9-2.4,3.3c-.6,1.4-.9,3-.9,4.9v.4c0,1.9.3,3.6.8,5s1.3,2.5,2.4,3.3c1,.8,2.3,1.2,3.8,1.2s1.9,0,2.6-.3,1.3-.4,1.9-.7v-5.6l-4.3-.2v-2.4h7.3v9.3c-.6.6-1.6,1.2-2.8,1.8s-2.8.8-4.7.8h0Z"/>
    <path class="st1" d="M228.6,67.8c-1.5,0-2.8-.4-3.9-1.2-1.1-.8-2-1.8-2.6-3.2-.6-1.4-.9-2.9-.9-4.7v-.4c0-1.8.3-3.3.9-4.7s1.5-2.4,2.6-3.2,2.4-1.2,3.9-1.2,2.8.4,3.9,1.2,2,1.8,2.6,3.2c.6,1.4.9,2.9.9,4.7v.4c0,1.8-.3,3.3-.9,4.7s-1.5,2.4-2.5,3.2c-1.1.8-2.4,1.1-3.9,1.1h0ZM223.7,45.3v-3.5h3.2v3.5h-3.2ZM228.6,65.3c1,0,1.8-.3,2.4-.8s1.1-1.3,1.5-2.3c.3-1,.5-2.1.5-3.3v-.4c0-1.2-.2-2.4-.5-3.3-.3-1-.8-1.8-1.5-2.3-.6-.6-1.5-.8-2.4-.8s-1.8.3-2.4.8c-.6.6-1.1,1.3-1.5,2.3s-.5,2.1-.5,3.3v.4c0,1.2.2,2.4.5,3.3.3,1,.8,1.8,1.5,2.3s1.5.8,2.4.8ZM230.2,45.3v-3.5h3.2v3.5h-3.2Z"/>
    <path class="st1" d="M239.2,67.5v-2.1l2.5-.5v-12.7l-2.5-.5v-2.1h5.2l.3,2.3v.3c.5-.9,1.1-1.6,1.8-2.1s1.5-.8,2.4-.8.6,0,1,0,.6.1.7.2l-.4,3h-2.1c-.8-.2-1.5,0-2,.5-.5.4-1,1-1.3,1.8v10.1l2.5.5v2.1h-8,0Z"/>
    <path class="st1" d="M252.7,67.5v-2.1l2.5-.5v-20.5l-2.5-.5v-2.1h5.5v23.1l2.5.5v2.1h-8Z"/>
    <path class="st1" d="M263.7,67.5v-2.1l2.5-.5v-12.7l-2.5-.5v-2.1h5.5v15.2l2.5.5v2.1h-8ZM266,45.3v-3.5h3.2v3.5h-3.2Z"/>
    <path class="st1" d="M280.5,67.7c-1.2,0-2.2-.4-2.9-1.2-.7-.8-1.1-2-1.1-3.7v-10.8h-2.6v-2.4h2.6v-4.3h3v4.3h3.6v2.4h-3.6v10.8c0,.9.2,1.5.5,1.9s.7.6,1.3.6.8,0,1.2-.1c.4,0,.8-.1,1-.2l.4,2.1c-.4.1-1,.3-1.6.4-.6.1-1.2.2-1.8.2h0Z"/>
    <path class="st1" d="M287,67.5v-2.3l9-13h-6.1l-.4,3h-2.3v-5.5h12.5v2.2l-9.1,13.1h7l.4-3h2.2v5.5h-13.3Z"/>
  </g>
</svg>